<mxfile host="app.diagrams.net" modified="2020-07-22T09:51:43.620Z" agent="5.0 (X11)" etag="9KPc_O38u5sCFQYgZUw7" version="13.5.0" type="github">
  <diagram id="prhUwxVcxcgFVBwrhUdC" name="Page-1">
    <mxGraphModel dx="1357" dy="807" grid="1" gridSize="10" guides="1" tooltips="1" connect="1" arrows="1" fold="1" page="1" pageScale="1" pageWidth="850" pageHeight="1100" math="0" shadow="0">
      <root>
        <mxCell id="0" />
        <mxCell id="1" parent="0" />
        <mxCell id="gPC8rZZADNhzoS2il3U0-7" style="edgeStyle=orthogonalEdgeStyle;curved=1;rounded=0;orthogonalLoop=1;jettySize=auto;html=1;exitX=1;exitY=0.5;exitDx=0;exitDy=0;entryX=0;entryY=0.569;entryDx=0;entryDy=0;entryPerimeter=0;" edge="1" parent="1" source="gPC8rZZADNhzoS2il3U0-1" target="gPC8rZZADNhzoS2il3U0-6">
          <mxGeometry relative="1" as="geometry">
            <Array as="points">
              <mxPoint x="440" y="190" />
              <mxPoint x="440" y="131" />
            </Array>
          </mxGeometry>
        </mxCell>
        <mxCell id="gPC8rZZADNhzoS2il3U0-1" value="" style="shape=cylinder;whiteSpace=wrap;html=1;boundedLbl=1;backgroundOutline=1;" vertex="1" parent="1">
          <mxGeometry x="310" y="150" width="60" height="80" as="geometry" />
        </mxCell>
        <mxCell id="gPC8rZZADNhzoS2il3U0-5" style="edgeStyle=orthogonalEdgeStyle;curved=1;rounded=0;orthogonalLoop=1;jettySize=auto;html=1;exitX=0.5;exitY=0;exitDx=0;exitDy=0;" edge="1" parent="1" source="gPC8rZZADNhzoS2il3U0-2" target="gPC8rZZADNhzoS2il3U0-1">
          <mxGeometry relative="1" as="geometry" />
        </mxCell>
        <mxCell id="gPC8rZZADNhzoS2il3U0-2" value="" style="rounded=1;whiteSpace=wrap;html=1;" vertex="1" parent="1">
          <mxGeometry x="140" y="220" width="120" height="60" as="geometry" />
        </mxCell>
        <mxCell id="gPC8rZZADNhzoS2il3U0-3" value="" style="strokeWidth=2;html=1;shape=mxgraph.flowchart.annotation_2;align=left;labelPosition=right;pointerEvents=1;" vertex="1" parent="1">
          <mxGeometry x="260" y="200" width="50" height="100" as="geometry" />
        </mxCell>
        <mxCell id="gPC8rZZADNhzoS2il3U0-4" value="" style="shape=trapezoid;perimeter=trapezoidPerimeter;whiteSpace=wrap;html=1;" vertex="1" parent="1">
          <mxGeometry x="290" y="280" width="120" height="60" as="geometry" />
        </mxCell>
        <mxCell id="gPC8rZZADNhzoS2il3U0-6" value="" style="shape=image;verticalLabelPosition=bottom;labelBackgroundColor=#ffffff;verticalAlign=top;aspect=fixed;imageAspect=0;image=data:image/png,iVBORw0KGgoAAAANSUhEUgAAAIQAAACgCAIAAABCG1PQAAAAA3NCSVQICAjb4U/gAAAAGXRFWHRTb2Z0d2FyZQBnbm9tZS1zY3JlZW5zaG907wO/PgAAIABJREFUeJztfXl8VdXV9rP2OeeOmUlICBBGEQUBUSCAMikoIOJUtHWu+oqiUhW0Fee2Dm+rgNCv1TpbcaqVVoZWrICIKKPKHCAQkkgSMt/c6Qx7fX+cm5sQEEnMhZv3l+eXP3LPtIfnrL3WXmvtfYiZ0Y74gDjVFWhHA9rJiCO0kxFHaCcjjtBORhyhnYw4QjsZcYR2MuII7WTEEdrJiCOop7oCPxnMiDp0CCA6lZX5aWjLZEiO9H7j/pcSIIg2SUnbJMN2bgoCYPj8XFIuQjq7HJTZQU1KAAApQdTmpITanteW2e5lY+N2fLyGtu+jKp8iIQVxaqJ1Vi+efJ7z3H6Nr2wraGtkMIPIrKmVf/rAsWoLAjpCQfY44XAgrFNIh9MFj0Mfe464e5qa4G1bfLQ1MgC9xid+vVDd+z18PnlWL4zPRZ8cJHiopo73FeLf68SO/UhM0k/vTE/N0BK97WTEBswSbDz6Z+e6XVIP4vrJdOMlcGhARIVLgHQDr/2L31om3N7g8DMcT05XuM2YWG1nniEliPQVXzm/2s0BP267jG67nBwamPmrrfL1f8nNOwkgh4bbr6SbL2W/z71uh7FqI4gg5amu/Qmh7VhTRLo0ackaBII8+HRcfwkZJqsKL16F374MRTARnr4LY4cQS/zyUt6wHdv2i49WmqMGq9Q23rm2UcuI3j5You4tZiNMU8cIZgBMxP/5kpwOdEwjAEu/gCBpSoAwdQzCYZF3MFxYEnlC3KONkEHELJWdBxR/GKlJ6NeTAbZn3Gf25OpalFdzXQBnn04ACQIBZ/bglAQlZIqi0rYy54jLYaqxPaqbqPPDF7CIcegwgiGZlihcDhCxEGRZNP0qmZ5K2/fR2afTZWPZsqAIBjjJC7dTHK6m/GLrtO6KoiDRY2v7pkXEDeKSDCIwwx9CTR0CQSQkghSYYb9gB0GEdTItZiZmqApMSWf1Rnoy5WSBAEVh0xLEFAxL3ZDMBkuXBEwLlYfgcSM5AV5XHDKBOCWjLoDqOjAgBJi5toYAKIT0VE5wU1Ut7/+e0lNYVfi7PH7qNdpbBCIGo19PzLmFTsthKZFfTNV1MtGtpyaadT7VYhCBCVU+VPuQkoAEz6luZ1PEl85gf5ALS1EbhMUIBhEIMDMRAVAslpmpocxUhHS5dA0Lgf3FPPM5cbAEqYlI9iIlkXYe4Jl/xKHDEEIu/QIhXU9PRqcOwpQgYmYE/AgGYTFqg1xYyv7gqW7xEYgDMmw7x7RQVkXlNcSEujroIXuwsplgAFJqCd7AoF7kdOC/G3jtN0hNQlYaB8OoqSN/EDV1rBvISEVKEq/ciM83w+3wn3O66vWQZAD2o0AEPYS6OmKi8hqUVcG0GqpxSnFKZ+BRLeoPorwGDid8tUC9zqiHlNLuR9Myyysqkud/4Ckst5I89OR0DO2Hf3yGL7/jugAlJ+D8wTR1NK/ZzE/8VfEFAz2zau66Mj01VRWKLRlE1ECJXURiEvQw0pPhdR9RpVOBOHCHVNbCF4CUMIyjTzauHluyztJrdu3LenW5VumznBpNOg9XXYDsDEgmAhcfxoef8rK1imGFUxPKbp2Uenovj6KRIlhGhIyO7mtNgxBI9CAtKZbt/HGcIjKYQcSWpMNVgAJf7fFHiahwSMOsZcO/K7/DuyvdReWsG+x2IKsDkryorkNJOYVNcmrB7A6l00YnnNErRXEKTbW7/xg0REGExCTA4oxUUsSpko9TJxmW5NIKUjTU1KB+BndM2DW0BxkGpGH4pFldUuZd/U3S9gJnRS2FdZgSTg0uRyjFW3tWj8CoAYkdOiRrTkXVQDhigDoOkpPZ1KlTOsSpUaWnhgy2LDpUAUVDbc0JvoPRejLAphUyjSorpB+u0gpKlfJqIRn5xdLn12+arHbKSFEcbtVBqhJ9NNXrjOOXgaRkWDp3SidF+SkNbBlOwTyDpURJBRQVvgYmjt9TEbFghi1AquJRhNNU9E6uYFamYZnscYnFq9xffJeU1sHtThRH+j9OiAkARKitQVISSiq4UzqddPk4uWQwg4hKK6A6UFPdeGQ6fk817k1mthWxomlu1txSsmKxy0vuBFFawyzI5UTYtHNGGm45QR1ABJ+PkpNRWoFOGSdZeZxc8olQXgWhoba2uSOkzUeT0Z8EQRGkKEJT4dAsZpYMsGRpXxa9pXn1rK2F0FBefZLV+Mkiw+72ugACOnw+23Zqbh9FX3Ouv72ho5mFEEQElgAJQY0va3ZlpYTPh0CY6wINlY89TgoZtqlkWSivAXM07tYC24EaoZEiYRBJywKzPdCzbLiyBfUlOzjITOU1MC3QSeLjpJBhd0hZFZxOhEINh1s6CDRYVvYoxMTMbJhQFURmCS1huilCITidOFwF/LDd3ao4ScMUB4IwLNTV/ZRRmOsRtawixwFIprogu5ysqczM4KjCaFlBAECEujoYFgdOkj/xJJFBh6sgRIsTAxpUd1RVMJNksvWDqpBC8AfJoZGikGlRI1UfpbAZtY2+MVJCCLKFI/Y4KaatLwDN2TKxaKyEIx1qWVAVdjhYCA7rHAiRYULXUVqBJC8neYWmsmmRbrAlISjatS0xq4gQCCAhAb4AEmMe/4j9DJwZBYcgVISaLeyN5xYAIBmqIp0aV/uwtxB5B+lgCapq4Q+RJRHS4dT4tK7cI5v6dOOe2cLtplAYku2s3IZpY3MpcbkhTXTrFGtLN/Zk1AVQ7Ucw2NyAwRG6gRkg9jhlSQU+30zrt1PxYfiDZEkoSiTnXAgwQzdYU5Ho5R6deMQAjBgoEjwUDEf5QAtEhAhuN1K8sQ4Oxp6M4jKQAr+/WWREmWCAJEMVFoCVG8SStThUAcNEogc9O3OfHM7JQockKCp0HaWVVFBCuwtwsAQhHS4Hena2rhgrzjlDhA3bArY5aR4fRPB6wSY6Zza//c1AjMnQDRwsAfNPYEKyQzPr/OK1JeLrbTBMJCfwuCHWxcO5b49IRKgJqmvFN3nKx2vw1TaEdbidctIIvmqcyhRZKnDi3qooiEDEOVkUzS+JAWJGhu3VqaxF2IKv5sQN9SNGJ8msqVZlNS14T+QVgsDDzrJuv5zP7AUAuk6WbZ41XroE1hSoGsBizRblLx9iTyERWecP4lumqoqAjJDQTM3BSEyGU0FaUuwcVjGWjKJSQEEw0FzJsL2BLIQZCIjnFil5B1lV5A2TrFsvhyIoELLNpMiAg0gY1S6DAEjJIHa7qMan/uFNWrGeGObYwXzrVM2CPV7ZZTXDgej2ABa6xHCkis08ww4HGSbCBkLNUN2Np3UATEjx+hKbCWvmNdbtV8EwKBiGqnC9S4qi3vJ67wcDrCgkSAQC8LrNJ++Ql48BQVm9hf61xnSqxOAmIngiLQoFETbYMKMNbHXEhgx7XA7pcDohrebcV2/zSGm5HPhso/hqOwPyhsly2gQEgwSAANkQaDqiX2w1Yx9khlDIMGGY1qzr5ejBJKWy5Au5fZ/lUEW9y6QZg5W04HRSSI82sNURQ8lAOAzNgRPOAG8QC2ZWFVlSri5dS6bFuf2tW6YiFCYiJmKXEw6VJEMyAWyPtBF/YWSMImZ2OdmpQRBJCwRr9vWyaybVBWjxKsswGERopr+EBDQHwuGGBrY2YukO0Q0Yxok7POvFAsxsqQqt3kyllZzstaZfyYogO79DEO06wIfK2e1it4uFIGmRPZWzJElmVWG3m10u2lNIBYdYCBaCwrrMSOObp7AQ2q6Dcstuy6GSPHJGeVxEuDYMhI+RwtJaiI07xM5KChsnLhZo0NsEReiV1dqGHTBMOW4In9GTgkEmwYogn1+5fx5CYYwYKC/KlYP6cIIXYBgmnBoAqqgS67bSJ1/T+m08+AzjTw9QyGIhKBy2LhwmPlqJzbvx5bfmOX2ViNJhcQLh1choZhpgGTtrKgZk2HW1JCwLkM2KBBARmKWqyrwC9VAFJ3jkxBGI2EsMEjAsCulITcKmnepHK7l7JzluiJwwDN2ysWG7+M9X4vMtVF7Np3dDUgIFQhETlsCWhMdtTchVv9mj7i0KHTrs6JxFpmzGhIMB0wQYloSqxIKSGJBhV9GywAA3w03LzCASDBNSySskf4gH9Oa+3dgwQIJsnawqCATltAut6yeLlRtoxdfK+yvEon+jQzJKKik10Ro9mCfkyqH91Zl/RLUPJCJRRUFSWjykH6cliSof8outnGzNsPiEc1MiESci21MZC+GIxTDFAMH2Gpnmid8WGcEJVlgXJZWwLHl6N3g8FAySEIBtwjIRsWGyxyUnn4/J58nCUvHZBtqeL2cM4hEDOD0VkXQeU9ijpS0ZABkmOmdw10xl8y4qKpMyYpOdiGQ0XKAoaJhpxr9kSEAAzHC6YDXPJUWAFMKq8Snl1VAUzslkZsGNUmOZ2N6kgpnq/NBU7tLRunFK5H7LokAQzPC4KcqE/WQGM7PLwZ0zeONO5XC1ZRhE9rOb4xRxuiI1ka1v/bQ+GfZrxlJS8zfwiHSNYYpgGIKoQwoBdlg1ckV0o5D6uR6F9cgAh/oRkurJO6KXmZglCUpNgpQIhFhKtCBTTRBLSfXNbF3EwZKAI2G/wbAkA1CUiP5t3HCKdDp7XOxyRtKj7FvB7HGzywGgqTIgYlusFIUAGBajee7Lk4DWlwyyM9WEiM6Tm3FvfZ4bNIUA6PZb30gyEOlzAGLTLpmcwH26HfGEzTvI45J9e1KTjradH0QwDICgqQRqyZgvIwko1DasKVvYiBAOtSSgBEhVMd0OTTKXVTIgmJqs2LAnkmL+O8qO/fLSURjWH6lJ+L4Ma75Rlq21rpuIR3rWO3TrQWSvuOHyahbCTHBFVpU1z3XLCIcgvA3NbFXEwpoiAFAErGZ4pWwwkZAs3U4jLcklJR0oqbefovE+MMH2K5mP36a+84lYuQn/+pwMk50aMtOse39hXTEWzKyIyC328gNmCEHBEBWVkSL0jGSHItg60be7weKyrPqZbJswbW35VRQQQM3LCLGVsOZ0mF06kqqI3QVcW2d5XTAl2X5vOynEFpLu2eYjt9GdP0NRKQVCnJSAblmc4IWh27UQsj7jhpkYUlMp7yAVlUm3U3bpqJIANc9VAyEAhqo0NLNVEbNJnyKgKCABQz+RSTg3eoVVyYG+OTIlURSWWlt2Y8y5ZASZBLMkVWWnxi6NiURIh2JxSgI6pERKMAwKBACSmgMuB5tmxEsuCFISCfHlt1RTZ3TtKLtlaTKy4ONEZ+AEqCpYwpa5NjLpq39rHBpY2O/pj13ORCTBsKRwqJrmIo8r5HW6a/3KkjVy1Nlsm1SWhMdl/nUOOiSTYbCmEkCmBd0EIlYWKwoAMgz54A2wJBkGCwIzNJWqasSKr0mIYJ8uWkaasJiVhiyFE6khVA0kj2U3tw5imTfl1GAJBI+XqRrNnWFmkowEN3wB8e4nrtUb/JrwJHiwbquybqs5cpAIBKCqkJL7dINpkWU1dEfDmpj6gVxKzs4AEemG/VO6XMo/VmL/ISvJGxjSN1mozQr22YFaaBpEDDfoiWFwCU4nDP047inbdiIilhIMJHh4ww7+9QL+4L/egX2tO64KZqeRboj/93dR42NNg2UxEYXCZFnc1L5qeGjkNdZNCutMxJbFHo+yaz+9+4lQRO2AHmrfHi4ZebVPNKRBAEsYOtzOhga2NmIZdnU5EA5DKPXHmiISLLIkFAGHym8vx+9eYSJ+8n8wY5qnb4+qC85mtwt7Dir/+yYUhRVBlsVCROyrY/YIEaJ6QggyTbjdVFmtPPWq4gsYaUn+CUMSNIe9SqxxktxxAAAMCAXhMDsd0Qa2OmIWzwBIU+HUAAUBP6Qke4dT+41mhmS2g9EOlXWT/9/f6ZOveMr54obJlOChQMhrWuFz+1XtL03772br0/VKoseadT0rCoUNe3cpiqYnN0bjgc+04PWgskZ9+M/YeUA6HZWXjvB06+zk+kyGRmsGGEz100mQvRkrRRYwMEMIuNyARZp6jEJbCTHTGfab63EjZDIAr1uaJsIGDAOKQg6NPA6EdQJxSOe5b4uNO+X0K8Wlo6EbXBeEIkhVk1iWXpIranwpG/bIf6ykylpr1vWyYxqFwxGdEc0OsctExIcIS7KmstcpduSrz7yOvAKR4C276Bxr6JnppDZxSXH9UkFmhtPBQkDXOayDmRwOuBxCCA6FSQi4HA1NiwFiRoZdXa+L/VWQUq7Zgs27uKSCQmEIwWlJ3Ksr5/anjFT88S3avEvO/Lm4aDh8fgCkCPu11VStgyex4poLWIjU9Xly1UZlXxHddIkcn8tuN1jCMMl+c+0iiVghaA6AqKpG+XCleP8TURtgRT2c6tLP7dsxKZl0ixqJRf0oxKwIqai8p4A27kR+MWr8xMxuJ7pmWoP7ioF9YBnwJjQ0LRZ9FsO8KSkhhPmfL9UPV2P7HlkXjDie7BwOVeHsdE5LogOHcNMUcVEu1/qZyA6CNigVS4ZM/bC/1v3v9elrtglfQApwv15yQi4POROdM9jlbJgMs0QgSPsP0ZffKiu+xv5DQggzK7X03NOwaWdHcmj3Xsu9uqDWD0EkRKTtUrJDs3x+8f6ntO471PhhWgTY6Q4QRAkeGtLfvPoCNXeA3agYdVjMyJASQoSXrNYW/J2qa+HU5MA+NPA0dEhB2MDeg9i4E0VlpCncNct8+Jea2xUxlo56EksZCoerLd3cvi/1v5sT9pdQXYgJnJbEXTO5cwalJkFRYBgor0ZRGRWVUY2fFGEleWvP7Fo7/lxXr25pe77X/vR3S9fpnmso9ywEQzAtJhKApSrycJV44T2xt5AB7p5NQ/uhWycIQnk1Nu6k7flgcGZa6Dc3eHIHtrWMQmYQhdZscj75GgJB5GTy3VfT8AGN28CHq/DyYiz5nCSsc07nu6apJCKJT/V6tUE+mE1D91lmbZ1P2bov+Zt93gOlam0AYR3S1rEAAUJAEex2GikJvt6dfIP7iL7dk52uBKGJpAQuKsXC97FzP185TrliHCd5KRBiwNR18Ye/KbsKpMvBv7hI/PxiJCc0tMUw8d/1/KcPRI3fSPFaf5zp6tM9RnzESjJCtT7lf36vFVVwt0zMvQ8d0wAgFMbuAmSkIjvDvoxf/Se99BHAxk1TxMW5alCXjSycJhl/0rIM06iVZiAYlMVljuJyZ0mlo6pOCeqwLGiq4XXpqQnhTmlm145qZocEpyuBVE1zQBBJhtspA0Es+g8+/hw5WbjmIgw90/K68Mo/tSVrpabiwRtpyqhIYfnFCIZwRg97UKLdBXLWXOELGX270guzVU1rI2RICSH87y73vrxUWjotfBD9epFpycoafuhPtHUvJ3po1vV00XCYFjRVPjBffLre6t3F+M2NTq/XziyLao4mqU3MDCkN0wxBhlmGdd0yDMs0AZAQiqKoDoemKG6huEhRFAX2euRIxRiqgNPB67fj3U+wu4AG9THPG6h8/AUOHaarJ+CBG0k3WVP45Y/wxlKYFl84VMy5hVSFNZU/20CP/Jk8nsDDN3pGD4mF8oiBLhLCtExtzbfwB3H+2ejXi8IGqwp//Dmt34aURKoL4tV/QjcgBDHT1ROkyyEOVfC+QlYFNd6Z4qhV9UREiuJwOpMcrgzN3cmdkJ2Y0jU1vUtqeufktOyElEynN8PpSXC4VIeDFOXIGwUkwx+iIf3o93firmmyLoC3l4u6ADqk0HWTIJk1hYtK8dYyUgQluLFsLa/fBk0l06Qx52DAaQjqYvUWCzIWkhETwyBcWiGKy2CZGD7ATr4EQF43JCOsI6zD44YQEMQAndmTumZSXYALy0wRoSEqCo3XGjWeo5EQUITqcGgOh+aIQHNoiqZCiOi2H9G7oqSSEOwPEhFNGmk8dac+8DSu8VOfHM7OsA0oODR2OTmkI6RDCHjdYLBkCIFzzoCu08ESPRhuC45C2w3u8wtfQBIoKz2SEy4lXXK+3F9M67aiV2fcdTUUJZKG5HZyhxSyDnC1T5oWgZpkbBydhBkVHa7f9wiRROZoLZqOb41/kiKklKI2YKlQFYUsS2al27NFZqaOabj3F/zGElgWTRxJg/owSxZCMHN2OgBR67d8friPtU7np6G1ySACYMmI1QhpRXy2QlCCR8y+ETvzObMDdUwjQFok6qOhBBjieElvDX6LI117Df83jXkfYy1lhEVmQcQKqD5jGpEcKmKwIMLEkXRmT4TCOL27nekSeaZuEhiCTjD1rbmIyQycEzwyJVGpDciCEjrnTCLAsuQbS7D0C/YFSFNlv550z8+pS0dmRm0dSivYoVJKorB3RD0ufmKKTCSgBIDZUshI9jiFkAdLhJQgkFDk5l146UMUlMCSyEjlX1xMk88jaTIRikrBZCV42Ov6KXX4IcRAZ0ipZHYwu3eCqmH1ZgYIxM++jhfeRVklhQ34AvTZRtz9LOcXERF/vZWKD8tEj961o1avF2PoF2hwRpEKMrplSo+T8gp4Rz4R8ZotfO9ztCUPgRDCBvZ/j8df5LeXkaIgEMK6rXA7jd6dhdvZggj/jyImCtzpcNTlngmPizZsx2cbpCJo4y4QQQgSBEFwaNhbxAdLWTf49aUkWe+aKXKyhCk5ul4mZiAiMFiQw2KrT47RMZX8IX7ln0yE7flUXg2HGnHcagqCYdq4i4n43U9oTyE71NDw/g5SYuEUUR5//PFWfiSRkFyXkaxs3qFVB3n9VurfC7dMpUAQZZUIhuFQqV8vevIODO2Hx14Um3eRw1F1xfnOHl1cpCD2ZAC2dxck2fI4g3rYu7uIisoQDNOMn1GPzigqY18dLEkZqXTDZPzmZnzyFRa+J5zu0Dm9rWsmeFQtFvu0xWQGzpKDllG3eXv6798SVT7pVHHzpbhiHDEjGIamUoKbdxfwvEX0TR4RVVw42LxybLrDLVS1iUckRohuB2qZ5uFgnfu1pSkb8ixBNOpsmjEN2RmoC0AyvG4OhfH2Mnr/U4IS6pRS+ejNab17uNrMDBwAwKZVrQfD675NX/iRWuWH32916iDO6o2MVA6GkVfAuwsUFnA5/Of3r5g4tGNCkkNziHpPakyZaGzvSilDhl5ZWZW1+At1y16EwtKp4owe6N0FioKiMt62V6n0ITExmJ16+J4rUs7qm+hwxmg7yRi60KVh1Ojhuh17kj9YlfjNXgqZCIYjcwuHBpcj3CW9YtJQq3+vzppLqA42Iyu0Yj5GAWhMiapalvl9sM65blvyZ1uch2sR0qGbkRQpl9NKcFaP6Oe77PwOPbslxIwJxDaeAUjTDOh6VU01dh5w7djvKCxDMAxBVofkUL8eZv+enuzMDt5E+INUUftD22/HBNEiEpOghzk1UXpdFYG6wP5C57b9zt0HlRo/pGSvy+jSMXD2aerp3VM9CW6HI6ZbrMZ+7xDJhmGEpBnQw3o4bFkWkdAcqsvp9iiqU9MizTMtVNYiGAYJhIJ2bmFMKInS4HKDJdxOpCXZSYJsWiHLCJhmOBwyDYOZhaK4XC63qrkVTWhqrEX2ZG0yLCWYLcuyAwFCCCIRSc1rBPYHUVlLigrDRDjU+iJiP9DphKaxZSI1iRKO9GowQ7JkyZYE2dn0AkLELtR6RO1OEhnNQuOPmQSabnXBJ5aNeYzLiODxQEoQ4vNjJnFJBgA+8jM/ltl0x6rjCE2TU0Rwu6GoqPPF+Wd+4pKMxkFN+wNYgRBCOlwuqBpME6YBy4J11Can9k9FgaJA1aCqMA2EQnA54HEhwQuHeowi4gZxScYxYZjQDQRC0A3oBiTDsqBp0ByRPCjLgqHbeVkRj4tDg8cFhwYtLj8tdRTaDhmNwYCUME1YEsy2i5tsNasIqCqEODk70bYu2hQZx8znbMXrTzXaFBnHRHRtfOsvkj/ZiLulx80GHfVPm0XbJ+P/ENrJiCO0kxFHaCcjjtBORhyhnYw4QjsZcYR2MuII7WTEEdrJiCO0kxFHaCcjjtBORhyhnYw4QjsZcYR2MuII7WTEEdrJiCOcVDJeeumvAwedHf077/xR9913/4EDB370xrKysvNHjd61a/fxLwuHwwMHnb13797Wqe5Jx8lOKOrdq9fs2bMAMKOktGTx4sU//8W17yx6u3v37se5KzEpady4sRkZ6SeplqcIJ5uMhMSE3Nzc6M/Lpk79n9unz503f/68uce5y+1yPdHqy93iD6dYZxDRFVdc/vVXX9k/16z5YsZdd48dO27U6DH3zPzVoUOH7OOBQGDgoLP3798PYMHChTN/de9HixdPvezy4SNG3nDjTTt37Trmw03TfOmlv06aNHnI0GHTrr5m9erV0VN+v//xx58YPWZs7vARd945Y+PGTfbxAwcO3D79jtzhI8aOHffY448XFhbGsPFH4dQrcI/bbZimnb518ODBsWPG/PXlv776yssd0tLuuHOGeazPoWzevPmLL9a++cbrn69eNXLkiDvuuLO2tvboyx588NeLFy+++56733zzjalTL/3NQ3PWrYuw/tzzz+8/sH/+vHkv/uXP/fv3X7p0qX38npkzO3fOfuP1159++inLkl99/XXM2n0sHH/jytbFiy++dMONNzY5+PgTT153/Q1HX2wYxthxF6xbt46Z/X7/gIGD8vPzmfmFBQsmTb7Esiz7Minl5EumLF78T2YOhUIDBg7as2cPM69avXrYsNyioqLoA9//4IOrr77G/v+KK6788MMPm5RYVVU1YOCggoKC1mhrS3CyJYMZ4XA4HA6HQqGCgoNz58376KOPpk+/3T67fv36X95y69hxF1w69bJHHn1UVdWDxxooevXqJRpt1dKjR/eS0pIm16z8bOWo0aM6d+4cPTJp4sRdu3eXl5cDOHfIufNfWPDmW2+VlR2OXpCSktK7d+/77p+1bNnyQCDQqu0+IZxsBf7tt98OHdagwDt2zHj2mWdGjhgBYOvWrXfcOeO222596De/Nk0rPz9/06bNevgYu3c3WQXfob3tAAAIiklEQVQjhCKtppuOlFeUr1375bmfDW18kJmLi4vT09MfmD27R/ceH3zwwfPPz83NHfbwnDldunQB8Nqrr7z8yqt/fO65x594YsqUS2bNmuV2xWRnimPiZJNx2mmnPfrIw/b/iYmJOTk5Sv2Sxb9/+OHFF100/faIlPTte/p777/X4oIyMjqOGzv2rrtmNDme1akTAEVRrrnm6muuuTo/P3/e/BduvOnmZUuXOJ3OpKSk++791a9m3rNx06annnr6oYcemvv88y2uQ3Nxssnwej0DBgw45inLtNIbzSRCoVB+/v4WFzR+/IUPPTQnOTk5LS0tepDr15b5/X6v1wugZ8+ejz/26NhxF1RUVGZndwoEAh6PRwgxdMiQO6ZPnzd/fosr0AKcemsqitGjR/3rn/+y7dTi4uJZs2f/lKeNGD78vPPOu+XW2z799NO9+/atWrXqzjtn/OUvLwKorKy8eOKkufPmfffdd7t27Z7/wgs5OTmdOmWtXr166mWXvb1oUV5e3ubNm9/629+GDR36owW1IuJoSc/48eMPl5fff/8sn8/XtWvXO6ZP9/l8P+WBv33yib/97e0XFiwoLv4+Kytr/PgLr7vuWgBpaWnz5897/bXX7/zwLsuyBg8evHDBAiIaNWrUPbW1773/wfz5L3g9ngsuuOC+++5tpcadENr++oz/Q4ijYaod7WTEEdrJiCO0kxFHaCcjjtBORhzh5JHROCY6b/78+++f9aO3vPPuu9ddd33sqwYAeXl577z7bvTnCQZ6WxftkhFB3p4977zTQMYpCfTG0Qw8rnBKAr0tlIxDhw7NmfOwHbb81b335efnR08tXvzPq342beiw3EunXvb224t+dIZfWVm5YOHCy6+4clju8KmXXf7+++83uaCg4OCdd87IzR0+fsKEBQsXNo79hcPhBQsXXjxx0rDc4TfceNPatWujp/bu3Ttw0NnV1dXPPPPsuAsu3PLNN/bBRx977OKJk3KHj7juuus3bYpEWx948ME5cx4uKCgYOOjsiydOwpGB3uMX9NVXX4087/xvv/32hhtvGnne+VMunbr83/9uQZcCLYr0FRQUjB4zdtbs2Zu3bNm2bdtDD8256+677VP/+4c/jB4z9h8ffZSXl7d06bLxEy769W9+Y59qHIabO2/efffdbx8vKyv73e+f+nr9+sLCwpUrV44dd8GSJUvtU4veeeeSKZdOuXTqe++/n5eXt2TJ0jFjxz3468gDw+HwtdddP+3qq1etXr179+5XX31tyNBhf/97JH63Z8+eAQMH/c/t03/7299t2rw5GAwy8xdr1/75z3/ZunVbQUHB24sWDRk6zA4FlpeXv/7GGxMnTS4oKCgu/p6PjC0ev6B169YNPufcX1x7bX5+vpRyzZo1Q4YO27RpUws6tiVk3HrrbffPmt34iGEYzLxp06bB55y7c+eu6PGi4uJhucM//e9/+YfJaIJF77wTDc0ueuedAQMHrVq1Knp269ZtAwYO2r59OzP/5cUXJ06c5Pf7o2dXrFhxzrlDysrKuJ6M+fNfOE5D7rvv/hcWLLD//3jJkimXTo2eakzG8Qtat27dgIGDbAptPPbY43MefuQ45f4Qmj1MHT58eP2GDbf88ubGB1VVBbB02bKRI0b07Xt69Hjn7OyJF1+8ZMmS4zwwGAw+99zzkyZNHj9hwk033bxxw8aDBxtCrWlpaaNHj47+7N+/X9++p69d+yWApUuXXfPzazyeht3tLrzwwqysrE9WrIgemTbtZ43LKi4unjX7gQvHT5g4afKMu+4+XF5+IvkfP1qQ1+vNzu4UPdujZ4/SkqZh4BNBsxV4WVkZgC5duh59qrS0NCenW5ODXXO67lpxPAPxwQd/faik5OFHHs7u1Km8vOI///mPrjeEWjM7dmxyfWbHzMrKSgBlpaVdj6pGTteupSWl0Z+pqanR/+vq6m66+ZcDBw6cN3euy+36vvj7N996M3yssG4T/GhBTcLAilCs5nwFPYpmk5GZmQmgqKjwjDPOaHIqKzOr6KgXrfBgYVZW5g89raSkZPXnny9d8rEdgu7evbtpGsuWL49eUFpW1vSW0tKzzjoLQGZWVmFR0+IOFhaOPG/kMctauWqVpqrPPvO0Hejt3avXt999u3fvvh9uawTNLajFaPYwlZ6ePnTIkJdfebXxwWAoBGDSpIlrv/yy8USpuLh4+b//fckll/zQ0yzLAtChQ4fokR07dza+oLKy8vPP1zSc3bFj9+7dI0eOsIt79513/X5/9OyKFStKSkomjB9/7LJMKzUtVWm0S/DOHQ1lCRI/9Kns5hbUYrTEtH3kkYc3btw4+4EHtnzzzfbt2+fMefiO6XcAGDx48NXTpk2/446PFi/es2fP8uXLb/7lLWNGj75g3LgfelR2dnbv3r3nz38hHA6bpvnxkiXvvXeEaZuTk/Pc889/+OE/9u7du3z58rvvmTnx4ovPPPNMADffdFNqWuovb7ll9eef5+Xlvfba6w/NefjBBx/IyMg4ZllDhw7dty9/6dJlzFxXV/f83HmNie/SpfP33x9av2HD10clrjW3oBajJZO+nJycRYveXrBg4cyZv9J1fdiwYY8++oh96oEHZvfu3etvf3v74MGDWVlZ1177i+uvu+44jyKi+fPmPvPssxeOn+ByOceMGTt71v2PPf5E9ILkpKTf/e63Tz/z7P/+4Q+JiYmXTpkyY8ad9imHw/Hyyy+/9OJLTz31dFVVVZ8+ff74xz+MHjXqB4pCdnan+fPmzp03/+lnnklNTb3qqiuvvOKKvfsiw9SAAQOm/exnM2f+qkePHq++MrDxjc0tqMVoD7vGEdp9U3GEdjLiCO1kxBHayYgjtJMRR2gnI47QTkYcoZ2MOEI7GXGEdjLiCO1kxBHayYgjtJMRR/j/hpvJauCX2rEAAAAASUVORK5CYII=;" vertex="1" parent="1">
          <mxGeometry x="490" y="40" width="132" height="160" as="geometry" />
        </mxCell>
      </root>
    </mxGraphModel>
  </diagram>
</mxfile>
